:SAMPLES-PER-SECOND 24
:FULLY-SPECIFIED
:DEGREES
607
root  0.963851 40.6547 29.3196 177.269 -56.9227 177.172
RightUpLeg  -7.66617 -15.1621 -17.6085
RightLeg  17.7714 10.3296 3.48895
RightFoot  13.9106 -3.34112 15.239
RightToes  -1.74623e-010 0 -2.59999e-017
Spine  2.67857 -4.10144 -11.4217
Spine1  11.4592 -6.95628 7.74641
HEad  -14.093 -30.2091 11.5441
LeftShoulder1  1.55797 -2.48161 -19.538
LeftArm  16.7436 18.387 -51.5888
LeftForeArm  140.26 -75.709 -136.692
LeftHand  -0.02444 5.93749 1.40773
RightShoulder  2.82829 4.76223 28.2618
RightArm  -12.6948 -31.0969 36.5634
RightForeArm  19.5552 63.7556 21.5556
RightHand  0.0346966 -4.64859 11.7342
LeftUpLeg  8.3976 13.698 13.2534
LeftLeg  16.2088 7.35647 1.28603
LeftFoot  5.87254 2.34302 -15.6251
LeftToes  -6.27559e-011 -2.10356e-011 8.24929e-012
608
root  1.07873 40.5059 29.1448 177.68 -56.7724 176.512
RightUpLeg  -8.32178 -12.473 -17.9608
RightLeg  20.6657 9.92635 3.91033
RightFoot  11.6579 -2.92839 14.7147
RightToes  -1.74623e-010 0 -2.59999e-017
Spine  2.38771 -4.30019 -10.1528
Spine1  12.4591 -6.75393 6.09546
HEad  -15.6257 -29.4871 11.6589
LeftShoulder1  1.54409 -2.68493 -18.3736
LeftArm  16.9891 17.9135 -50.6416
LeftForeArm  141.954 -75.2679 -138.386
LeftHand  -0.022289 4.38756 -0.448802
RightShoulder  2.4658 4.26544 25.7033
RightArm  -11.2232 -27.5339 38.0393
RightForeArm  18.7788 68.7355 28.8293
RightHand  -0.0630942 -5.64031 11.3232
LeftUpLeg  7.08816 15.3784 13.4281
LeftLeg  19.7706 3.59251 1.57576
LeftFoot  5.31085 2.09456 -14.445
LeftToes  -6.27559e-011 -2.10356e-011 8.24929e-012
609
root  1.31378 39.772 28.9829 176.904 -56.5522 175.773
RightUpLeg  -7.7871 -11.5459 -18.67
RightLeg  24.1812 9.48258 4.41981
RightFoot  7.33323 -2.62091 16.1518
RightToes  -1.74623e-010 0 -2.59999e-017
Spine  4.78619 -3.82684 -9.64501
Spine1  11.9085 -6.29984 5.11755
HEad  -17.2973 -28.9295 11.8721
LeftShoulder1  1.48579 -2.80179 -16.8734
LeftArm  17.6086 15.0848 -49.9267
LeftForeArm  139.217 -76.1913 -134.906
LeftHand  -0.0304299 4.91276 1.1784
RightShoulder  2.2103 3.97794 23.3947
RightArm  -10.2989 -22.9351 38.2822
RightForeArm  27.1378 72.714 36.9153
RightHand  -0.0282517 -5.27205 6.74864
LeftUpLeg  6.63522 16.1026 14.143
LeftLeg  25.2183 2.14786 1.453
LeftFoot  1.0132 1.6892 -15.5847
LeftToes  -6.27559e-011 -2.10356e-011 8.24929e-012
610
root  1.56986 38.5433 28.8606 176.04 -55.9693 175.156
RightUpLeg  -7.88457 -12.6 -19.2274
RightLeg  28.5778 10.071 5.68693
RightFoot  -2.19623 -1.12844 13.5981
RightToes  -1.74623e-010 0 -2.59999e-017
Spine  7.23686 -3.13875 -9.33805
Spine1  11.424 -5.76675 4.65176
HEad  -18.7757 -28.623 12.0304
LeftShoulder1  1.48653 -2.91404 -16.4386
LeftArm  18.0033 10.2297 -47.8583
LeftForeArm  129.203 -77.7259 -126.279
LeftHand  -0.00478918 6.07666 3.76405
RightShoulder  2.07658 3.82182 22.1311
RightArm  -10.3693 -15.8675 36.2586
RightForeArm  32.6476 74.5097 42.2268
RightHand  -0.0162356 -4.44666 1.39408
LeftUpLeg  6.2883 18.293 15.6654
LeftLeg  31.2985 1.15678 1.12465
LeftFoot  -7.01026 0.71415 -17.7368
LeftToes  -6.27559e-011 -2.10356e-011 8.24929e-012
611
root  1.77644 37.2183 28.9182 174.501 -54.0005 176.394
RightUpLeg  -11.5424 -13.5923 -18.3809
RightLeg  35.9005 10.8278 8.09796
RightFoot  -9.98796 -0.170923 9.56141
RightToes  -1.74623e-010 0 -2.59999e-017
Spine  7.6832 -2.52158 -7.54587
Spine1  13.2077 -5.12696 3.97272
HEad  -21.3072 -27.8072 12.2592
LeftShoulder1  1.61174 -2.80126 -19.0447
LeftArm  17.251 2.43032 -43.9167
LeftForeArm  113.352 -79.3943 -110.296
LeftHand  0.0708937 8.48762 4.27264
RightShoulder  2.30741 4.13682 24.0628
RightArm  -11.5543 -2.97172 29.4185
RightForeArm  28.3486 72.0186 34.7731
RightHand  -0.0594424 -4.14844 -3.54172
LeftUpLeg  5.68729 20.1087 17.9091
LeftLeg  36.836 0.0835426 0.453416
LeftFoot  -16.1075 -0.733331 -19.7026
LeftToes  -6.27559e-011 -2.10356e-011 8.24929e-012
